# Blender v2.71 (sub 0) OBJ File: 'fern_1.blend'
# www.blender.org
v -0.584323 1.056194 1.649236
v 0.534971 1.088521 1.669533
v 0.631051 0.954803 0.997868
v -0.647219 0.922476 0.977571
v 0.688959 0.598755 0.367149
v -0.688959 0.606193 0.368395
v 0.688959 0.064985 -0.160213
v -0.688959 0.064985 -0.160213
v 0.018852 1.161973 1.008788
v -0.018852 1.382687 1.655996
v -0.000000 0.650204 0.375771
v -0.000000 0.064985 -0.160213
v 2.030788 0.420779 0.039669
v 1.805445 0.546853 -1.050103
v 1.116666 0.771383 -0.988862
v 1.377723 0.631325 0.255190
v 0.428685 0.551691 -0.909185
v 0.740985 0.437510 0.428031
v -0.185301 0.133139 -0.804991
v 0.124249 0.011936 0.532225
v 1.274207 0.795224 -0.372911
v 1.941402 0.579145 -0.527393
v 0.602480 0.539665 -0.240577
v -0.030526 0.072537 -0.136383
v -1.807050 0.369464 -1.422672
v -2.108958 0.451155 -0.347286
v -1.474219 0.556440 -0.093779
v -1.133520 0.466493 -1.323114
v -0.797731 0.436919 0.142886
v -0.464996 0.371937 -1.192697
v -0.145971 0.112507 0.324508
v 0.190249 0.040951 -1.009844
v -1.344528 0.600240 -0.715104
v -2.002712 0.499944 -0.875569
v -0.653727 0.446614 -0.532803
v 0.022139 0.076729 -0.342668
v 1.380699 0.636475 -1.845382
v 0.376993 0.583027 -2.325962
v 0.008641 0.591861 -1.740741
v 1.156750 0.631324 -1.195159
v -0.344557 0.372169 -1.144991
v 0.908724 0.437509 -0.583774
v -0.633437 0.133140 -0.593281
v 0.618179 0.011935 -0.029876
v 0.594219 0.795223 -1.493126
v 0.875299 0.794841 -2.117632
v 0.292768 0.539665 -0.878424
v -0.007629 0.072537 -0.311578
v -1.991069 0.500235 0.411273
v -1.495286 0.569109 1.413136
v -0.844041 0.754652 1.180509
v -1.413573 0.679971 0.037929
v -0.205789 0.524017 0.920946
v -0.847425 0.480753 -0.297720
v 0.348120 0.097590 0.648246
v -0.291089 0.047253 -0.571401
v -1.150297 0.811352 0.625733
v -1.756970 0.629318 0.943404
v -0.542179 0.547773 0.317901
v 0.028516 0.072421 0.038423
v 1.406045 0.810332 1.446171
v 1.873848 0.994292 0.445373
v 1.293938 0.933301 0.073580
v 0.762443 0.727495 1.218390
v 0.730897 0.644154 -0.283224
v 0.180165 0.462042 0.966675
v 0.235053 0.162791 -0.575541
v -0.316999 -0.026554 0.672677
v 1.041859 0.926596 0.657699
v 1.660263 1.000790 0.942456
v 0.464004 0.599509 0.352513
v -0.040973 0.068119 0.048568
vt 0.092196 0.357335
vt 0.069993 0.277194
vt 0.223496 0.213541
vt 0.244548 0.314609
vt 0.352789 0.171156
vt 0.367326 0.280365
vt 0.481971 0.106321
vt 0.487346 0.227607
vt 0.278701 0.056067
vt 0.439520 0.014522
vt 0.037361 0.181482
vt 0.192113 0.105863
vt 0.175236 0.526237
vt 0.112392 0.462179
vt 0.254600 0.430256
vt 0.321638 0.512847
vt 0.357141 0.400158
vt 0.410866 0.479481
vt 0.469528 0.341581
vt 0.480323 0.439312
vt 0.343238 0.318651
vt 0.446575 0.274376
vt 0.094450 0.398282
vt 0.234035 0.360698
vt 0.090543 0.683505
vt 0.080623 0.622192
vt 0.224782 0.617166
vt 0.215339 0.709949
vt 0.359191 0.602229
vt 0.373763 0.688487
vt 0.477872 0.532369
vt 0.486007 0.636104
vt 0.301375 0.517232
vt 0.482179 0.457558
vt 0.083659 0.538289
vt 0.230043 0.520484
vt 0.099622 0.696054
vt 0.077428 0.618992
vt 0.219377 0.630277
vt 0.266929 0.706692
vt 0.382111 0.615967
vt 0.372400 0.700893
vt 0.486575 0.585528
vt 0.500388 0.630863
vt 0.353763 0.494946
vt 0.484164 0.452975
vt 0.078123 0.533519
vt 0.232537 0.523223
vt 0.093457 0.355454
vt 0.063649 0.261047
vt 0.200973 0.208255
vt 0.214006 0.317934
vt 0.327328 0.156839
vt 0.303066 0.297034
vt 0.487396 0.081434
vt 0.471565 0.208865
vt 0.303446 0.050638
vt 0.404092 0.008513
vt 0.036546 0.176594
vt 0.162534 0.117711
vt 0.125850 0.500069
vt 0.112410 0.419624
vt 0.197110 0.428417
vt 0.241247 0.513254
vt 0.310416 0.415257
vt 0.368123 0.492804
vt 0.467537 0.342338
vt 0.478575 0.440069
vt 0.310840 0.316887
vt 0.459746 0.269863
vt 0.108540 0.370866
vt 0.211892 0.343653
vn -0.400400 0.886800 -0.230700
vn -0.157200 0.825200 -0.542400
vn -0.018000 0.686800 -0.726700
vn 0.021200 0.688700 -0.724700
vn 0.387200 0.899500 -0.202500
vn 0.154000 0.816700 -0.556100
vn 0.349900 0.917200 0.190800
vn -0.264500 0.933800 0.241000
vn -0.543000 0.811000 0.217800
vn -0.549600 0.816000 0.179400
vn 0.289200 0.949500 -0.121400
vn -0.318800 0.945000 0.073500
vn -0.093300 0.962900 -0.253100
vn 0.200300 0.974900 -0.097100
vn 0.454700 0.889300 0.048300
vn 0.442800 0.892500 0.085600
vn -0.170700 0.984300 0.044200
vn 0.172600 0.982000 0.076900
vn 0.239000 0.966000 0.098300
vn 0.031600 0.933800 0.356400
vn -0.155500 0.811000 0.564000
vn -0.254700 0.872600 0.416700
vn -0.292000 0.942300 -0.163900
vn -0.351200 0.920500 0.171400
vn -0.329800 0.941300 -0.072400
vn 0.226400 0.938200 -0.261600
vn 0.497500 0.808400 -0.314500
vn 0.513700 0.811400 -0.278800
vn -0.187000 0.959000 0.213100
vn 0.321300 0.940200 -0.113000
vn -0.214800 0.947000 0.238900
vn -0.466000 0.884300 0.029900
vn -0.656300 0.737700 -0.158400
vn -0.638800 0.744800 -0.192900
vn -0.090900 0.995100 -0.039000
vn -0.408600 0.902500 -0.135900
s off
f 1/1/1 10/2/1 9/3/1 4/4/1
f 4/4/2 9/3/2 11/5/2 6/6/2
f 6/6/3 11/5/3 12/7/3 8/8/3
f 11/5/4 5/9/4 7/10/4 12/7/4
f 10/2/5 2/11/5 3/12/5 9/3/5
f 9/3/6 3/12/6 5/9/6 11/5/6
f 13/13/7 22/14/7 21/15/7 16/16/7
f 16/16/8 21/15/8 23/17/8 18/18/8
f 18/18/9 23/17/9 24/19/9 20/20/9
f 23/17/10 17/21/10 19/22/10 24/19/10
f 22/14/11 14/23/11 15/24/11 21/15/11
f 21/15/12 15/24/12 17/21/12 23/17/12
f 25/25/13 34/26/13 33/27/13 28/28/13
f 28/28/14 33/27/14 35/29/14 30/30/14
f 30/30/15 35/29/15 36/31/15 32/32/15
f 35/29/16 29/33/16 31/34/16 36/31/16
f 34/26/17 26/35/17 27/36/17 33/27/17
f 33/27/18 27/36/18 29/33/18 35/29/18
f 37/37/19 46/38/19 45/39/19 40/40/19
f 40/40/20 45/39/20 47/41/20 42/42/20
f 42/42/21 47/41/21 48/43/21 44/44/21
f 47/41/22 41/45/22 43/46/22 48/43/22
f 46/38/23 38/47/23 39/48/23 45/39/23
f 45/39/24 39/48/24 41/45/24 47/41/24
f 49/49/25 58/50/25 57/51/25 52/52/25
f 52/52/26 57/51/26 59/53/26 54/54/26
f 54/54/27 59/53/27 60/55/27 56/56/27
f 59/53/28 53/57/28 55/58/28 60/55/28
f 58/50/29 50/59/29 51/60/29 57/51/29
f 57/51/30 51/60/30 53/57/30 59/53/30
f 61/61/31 70/62/31 69/63/31 64/64/31
f 64/64/32 69/63/32 71/65/32 66/66/32
f 66/66/33 71/65/33 72/67/33 68/68/33
f 71/65/34 65/69/34 67/70/34 72/67/34
f 70/62/35 62/71/35 63/72/35 69/63/35
f 69/63/36 63/72/36 65/69/36 71/65/36
