# Blender v2.71 (sub 0) OBJ File: 'flower.blend'
# www.blender.org
v -0.999980 -0.008740 0.006402
v 0.999979 -0.008740 -0.006403
v -0.999979 3.269600 0.006403
v 0.999980 3.269600 -0.006402
v -0.000000 -0.008740 1.000000
v -0.000002 -0.008740 -1.000000
v 0.000002 3.269600 1.000000
v 0.000000 3.269600 -1.000000
vt 0.139384 0.006501
vt 0.837606 0.000295
vt 0.843812 0.986854
vt 0.145590 0.993060
vt 0.149641 0.005836
vt 0.848759 0.008936
vt 0.845068 0.992748
vt 0.145949 0.989648
vn 0.006400 -0.000000 1.000000
vn 1.000000 -0.000000 -0.000000
s off
f 1/1/1 2/2/1 4/3/1 3/4/1
f 5/5/2 6/6/2 8/7/2 7/8/2
v -0.527063 0.083982 -0.520358
v 0.527064 0.083983 0.520357
v -0.527064 2.512096 -0.520357
v 0.527063 2.512097 0.520358
v -0.523722 0.083982 0.523721
v 0.523720 0.083982 -0.523722
v -0.523721 2.512097 0.523722
v 0.523722 2.512097 -0.523721
vt 0.139384 0.006501
vt 0.837606 0.000295
vt 0.843812 0.986854
vt 0.145590 0.993060
vt 0.149641 0.005836
vt 0.848759 0.008936
vt 0.845068 0.992748
vt 0.145949 0.989648
vn -0.702600 -0.000000 0.711600
vn 0.707100 -0.000000 0.707100
s off
f 9/9/3 10/10/3 12/11/3 11/12/3
f 13/13/4 14/14/4 16/15/4 15/16/4
