# Blender v2.71 (sub 0) OBJ File: 'untitled.blend'
# www.blender.org
o Plane
v 0.258085 -0.000473 -0.272672
v -0.713289 -0.000473 -0.482855
v 0.258085 -0.000473 0.287787
v -0.302374 -0.000473 0.287787
v 0.358786 -0.000473 0.007558
v -0.022097 -0.000318 -0.373273
v -0.403075 -0.000473 0.007558
v -0.022145 -0.000473 0.718951
v 0.156887 0.214232 -0.171474
v -0.201176 0.214232 -0.171474
v 0.156887 0.214232 0.186589
v -0.201176 0.214232 0.186589
v 0.221222 0.214232 0.007558
v 0.044481 0.214232 -0.235809
v -0.265511 0.214232 0.007558
v -0.022145 0.214232 0.250924
v 0.113946 0.621871 0.249630
v -0.151500 0.621871 0.009322
v -0.126362 0.621871 0.515075
v -0.391807 0.621871 0.274768
v 0.041486 0.621871 0.425530
v 0.024400 0.621871 0.081782
v -0.319348 0.621871 0.098868
v -0.302262 0.621871 0.442616
v -0.098150 1.883528 0.620294
v -0.141365 1.883528 0.389897
v -0.328547 1.883528 0.663509
v -0.371762 1.883528 0.433112
v -0.205584 1.883528 0.683298
v -0.078361 1.883528 0.497331
v -0.264329 1.883528 0.370108
v -0.391552 1.883528 0.556075
v 0.182964 3.404899 0.205520
v 0.344005 3.404899 0.049034
v 0.026478 3.404899 0.044479
v 0.187519 3.404899 -0.112007
v 0.075786 3.404899 0.153116
v 0.291601 3.404899 0.156212
v 0.294697 3.404899 -0.059603
v 0.078882 3.404899 -0.062699
v -0.070079 3.968616 -0.859975
v -0.857958 3.220897 -0.902195
v -0.863345 3.211892 -0.977292
v -0.904234 3.161739 -0.891781
v -0.909621 3.152733 -0.966878
v -1.250771 3.769931 -0.779231
v -0.674901 2.480141 -0.367837
v -0.681733 2.468720 -0.463082
v -0.733593 2.405111 -0.354629
v -0.740425 2.393689 -0.449875
v -0.355190 2.001121 0.508248
v -0.327304 2.004465 0.389779
v 0.104691 -0.000473 -0.905167
v 0.097783 0.122346 -0.340831
v 0.144084 -0.000473 -0.473309
v 0.017871 -0.000473 -0.594382
v 0.075891 0.053133 -0.538602
v 0.192309 -0.000473 -0.776043
v 0.133262 -0.000473 -0.749583
v 0.166720 0.032131 -0.753112
v 0.138379 -0.000473 -0.816043
v 0.102934 -0.000473 -0.792182
v 0.121376 0.021528 -0.800372
v 0.121342 0.021520 -0.800408
v -0.128985 0.106856 -0.254244
v -0.248329 0.081436 -0.264032
v -0.266761 0.075085 -0.237059
v -0.334440 -0.000473 -0.211721
v -0.119439 -0.000422 -0.317426
v -0.360646 -0.000455 -0.308520
v -0.386081 0.035294 -0.286343
v -0.388879 0.034276 -0.273019
v -0.388422 -0.000473 -0.243042
v -0.447821 -0.000464 -0.392917
v -0.461545 0.017840 -0.382242
v -0.458486 0.018346 -0.369212
v -0.462661 -0.000473 -0.359941
v 0.161927 -0.000473 -0.798577
v 0.294914 -0.000473 -0.954476
v 0.312634 -0.000473 0.844955
v 0.153432 -0.000473 0.448807
v -0.022145 0.112708 0.472233
v 0.323535 -0.000473 0.677507
v 0.921063 -0.000473 0.570026
v 0.279163 0.048155 0.729337
v 0.570183 0.026108 0.732035
v 0.604203 -0.000473 0.792400
v 0.589675 -0.000473 0.703242
v 0.684905 -0.000473 0.735763
v 0.989404 -0.000473 0.784314
v 0.759710 -0.000473 0.826004
v 0.736906 0.013221 0.793765
v 0.766588 -0.000473 0.779818
v -0.890732 3.067993 -0.909159
v -0.840600 3.118816 -0.912891
v -0.395486 3.504784 -1.293558
v -0.309586 2.675996 -0.885127
v -0.701448 2.549396 -0.518903
v -0.758110 2.473027 -0.503914
v -0.335240 2.643200 -0.879354
v -0.318203 2.711260 -0.909526
v -0.342970 2.677879 -0.902974
v 0.006682 2.801555 -1.570924
v -0.067621 2.002697 0.583942
v -0.177594 1.993124 0.648880
v -0.127554 2.379603 1.157185
v -0.207393 2.379603 1.188685
v -0.104867 2.468163 1.139010
v -0.186592 2.461048 1.171477
v -0.292680 3.087466 1.543209
v 0.406463 3.366902 1.318714
v 0.317566 2.872157 1.313766
v -0.122824 2.299792 1.070806
v 0.277483 2.867555 1.340818
v 0.257839 2.879950 1.315150
v 0.257956 3.457339 0.061681
v 0.451457 4.062439 0.620769
v 0.558201 3.660713 0.328061
v 0.498607 3.681071 0.323993
v 0.503505 3.633990 0.365016
vt 0.000000 0.000000
vt 0.594149 0.940812
vt 0.607960 0.929511
vt 0.618061 0.955218
vt 0.191081 0.818030
vt 0.141123 0.842596
vt 0.127797 0.798462
vt 0.751316 0.931546
vt 0.744082 0.928938
vt 0.736567 0.874615
vt 0.824628 0.899542
vt 0.824628 0.954570
vt 0.793121 0.954523
vt 0.231247 0.877328
vt 0.231247 0.925595
vt 0.191081 0.931128
vt 0.448222 0.773136
vt 0.483383 0.777235
vt 0.493321 0.856501
vt 0.959396 0.460397
vt 0.935957 0.551829
vt 0.909050 0.558185
vt 0.915293 0.000000
vt 0.936785 0.011674
vt 0.937839 0.121892
vt 0.160686 0.842596
vt 0.160686 0.943503
vt 0.133689 0.941996
vt 0.286004 0.020245
vt 0.229493 0.074956
vt 0.198952 0.057115
vt 0.836402 0.847011
vt 0.793121 0.850390
vt 0.799819 0.753254
vt 0.401087 0.904163
vt 0.371712 0.889879
vt 0.349519 0.792358
vt 0.441783 0.919907
vt 0.406747 0.915527
vt 0.441783 0.732119
vt 0.316855 0.818946
vt 0.286005 0.801906
vt 0.349519 0.563580
vt 0.834103 0.762222
vt 0.843768 0.507594
vt 0.108783 0.574510
vt 0.108066 0.594256
vt 0.096264 0.587498
vt 0.979035 0.711083
vt 0.979035 0.941796
vt 0.959396 0.943117
vt 0.959396 0.798198
vt 0.938047 0.807783
vt 0.913046 0.137268
vt 1.000000 0.227769
vt 0.980766 0.004232
vt 1.000000 0.000000
vt 0.913046 0.004884
vt 0.866368 0.281388
vt 0.852770 0.269184
vt 0.937839 0.362986
vt 0.914878 0.367220
vt 0.427558 0.448478
vt 0.518022 0.732119
vt 0.406747 0.450712
vt 0.383354 0.798937
vt 0.401087 0.563580
vt 0.513010 0.980742
vt 0.493321 0.740118
vt 0.513010 0.732119
vt 0.768018 0.813920
vt 0.789064 0.807627
vt 0.789064 0.985528
vt 0.913046 0.460397
vt 0.012937 0.718046
vt 0.018953 0.738722
vt 0.077606 0.940308
vt 0.653782 0.187195
vt 0.635047 0.198737
vt 0.730756 0.000000
vt 0.730756 0.296088
vt 0.749097 0.308099
vt 0.793121 0.487674
vt 0.518022 0.288657
vt 0.633623 0.534012
vt 0.633623 0.744150
vt 0.619622 0.738200
vt 0.285464 0.905248
vt 0.267339 0.891932
vt 0.285464 0.675699
vt 0.000000 0.675699
vt 0.518022 0.618529
vt 0.530518 0.612833
vt 0.616295 0.681791
vt 0.983061 0.438994
vt 0.972632 0.434924
vt 0.983062 0.300666
vt 0.960706 0.305147
vt 0.972632 0.300666
vt 0.972632 0.435127
vt 0.520150 0.451794
vt 0.535999 0.444570
vt 0.519919 0.469894
vt 0.984937 0.711083
vt 0.972959 0.702084
vt 0.964381 0.601102
vt 0.960706 0.000000
vt 0.951198 0.140219
vt 0.937839 0.143549
vt 0.960706 0.334638
vt 0.948789 0.347270
vt 0.630118 0.955396
vt 0.619622 0.763729
vt 0.630118 0.744150
vt 0.711441 0.492103
vt 0.982629 0.711083
vt 0.999980 0.716103
vt 0.999980 0.922294
vt 0.114491 0.417382
vt 0.099522 0.408811
vt 0.033955 0.224066
vt 0.793121 0.036112
vt 0.688427 0.807627
vt 0.736567 0.813270
vt 0.676596 0.837897
vt 0.441783 0.745626
vt 0.450648 0.732119
vt 0.635047 0.928813
vt 0.665535 0.931953
vt 0.676596 0.958066
vt 0.159714 0.782767
vt 0.458059 0.916176
vt 0.441783 0.886077
vt 0.491076 0.904034
vt 0.793121 0.919368
vt 0.850680 0.952513
vt 0.849405 0.899542
vt 0.852553 0.950988
vt 0.191081 0.900292
vt 0.160686 0.923049
vt 0.188536 0.842596
vt 0.188536 0.935207
vt 0.931546 0.907161
vt 0.909050 0.907866
vt 0.943176 0.807783
vt 0.262956 0.000000
vt 0.815990 0.259761
vt 0.852770 0.507594
vt 0.793121 0.264595
vt 0.569941 0.935116
vt 0.560155 0.693969
vt 0.586620 0.681791
vt 0.960706 0.011115
vt 0.980766 0.000000
vt 0.980766 0.300666
vt 0.852770 0.000000
vt 0.894960 0.022943
vt 0.897280 0.000000
vt 0.875955 0.762886
vt 0.852770 0.761607
vt 0.909050 0.460397
vt 0.761267 0.807627
vt 0.761389 0.783556
vt 0.783355 0.799905
vt 0.616295 0.288657
vt 0.979035 0.907741
vt 0.053508 0.237003
vt 0.955991 0.369314
vt 0.785248 0.000000
vt 0.651001 0.899750
vt 0.666478 0.894811
vt 0.938015 0.389051
vt 0.938015 0.438264
vt 0.923300 0.418443
vt 0.668498 0.844257
vt 0.673518 0.851368
vt 0.676596 0.807627
vt 1.000000 1.000000
vt 0.000000 1.000000
vt 0.401087 0.647694
vt 0.405224 0.632945
vt 0.405224 0.651848
vt 0.822339 0.871749
vt 0.802924 0.899542
vt 0.539299 0.845572
vt 0.537900 0.898760
vt 0.533622 0.896770
vt 0.586620 0.908559
vt 0.618061 0.899199
vt 0.843768 0.878220
vt 0.841003 0.899542
vt 0.834583 0.923018
vt 0.826157 0.921301
vt 0.406101 0.632945
vt 0.401087 0.609389
vt 0.406101 0.606565
vt 0.493321 0.737104
vt 0.841003 0.971891
vt 0.843442 0.971354
vt 0.852553 0.996770
vt 0.840331 0.944920
vt 0.836377 0.945428
vt 0.539299 0.962899
vt 0.518022 0.941791
vt 0.524195 0.915189
vt 0.532634 0.918761
vt 0.841003 0.994866
vt 0.500000 1.000000
vt 0.975528 0.654508
vt 0.793893 0.095491
vt 0.206107 0.095492
vt 0.024472 0.654509
vt 0.405999 0.606565
vt 0.401087 0.572665
vt 0.405999 0.563580
vt 0.460192 0.856501
vt 0.491076 0.858095
vt 0.191081 0.759203
vt 0.192792 0.691123
vt 0.240962 0.675699
vt 0.749849 0.881040
vt 0.744827 0.807627
vt 0.217041 0.808460
vt 0.211444 0.745954
vt 0.923300 0.438264
vt 0.913046 0.385968
vt 0.923300 0.367220
vt 0.768018 0.987628
vt 0.787285 0.625706
vt 0.783355 0.620680
vt 0.784401 0.587078
vt 0.220462 0.838542
vt 0.226772 0.798561
vt 0.790077 0.667286
vt 0.240962 0.877328
vt 0.225359 0.832422
vt 0.091674 0.814946
vt 0.082625 0.804980
vt 0.117863 0.675699
vt 0.994216 0.418792
vt 0.983062 0.409134
vt 0.989340 0.300666
vt 0.178037 0.496497
vt 0.177744 0.504578
vt 0.113819 0.435869
vt 0.176913 0.510128
vt 0.127797 0.931801
vt 0.553128 0.972570
vt 0.539299 0.962680
vt 0.553128 0.845572
vt 0.077606 0.823394
vt 0.783355 0.500846
vt 0.789261 0.493100
vt 0.789261 0.587078
vt 0.969616 0.605035
vt 0.984937 0.460397
vt 0.959396 0.595014
vt 0.286005 0.590532
vt 0.249710 0.946665
vt 0.240962 0.817633
vt 0.254659 0.815111
vt 0.635047 0.000000
vt 0.635047 0.020794
vt 0.516186 0.061463
vt 0.656567 0.760337
vt 0.635047 0.733917
vt 0.329502 0.196350
vt 0.331348 0.216097
vt 0.315009 0.195822
vt 0.395069 0.089816
vt 0.390832 0.089667
vt 0.406747 0.000000
vt 0.603877 0.899199
vt 0.586620 0.758469
vt 0.597136 0.762283
vt 0.331380 0.181356
vt 0.267339 0.675699
vt 0.517585 0.046654
vt 0.406747 0.143558
vt 0.943176 0.820222
vt 0.955198 0.807783
vt 0.955198 0.963636
vt 0.286005 0.048420
vt 0.402110 0.089997
vt 0.617054 0.681791
vt 0.066830 0.675699
vt 0.077606 0.677909
vt 0.349519 0.908242
vt 0.360389 0.904474
vt 0.360389 1.000000
vt 0.560155 0.840615
vt 0.541727 0.845572
vt 0.518022 0.767431
vt 0.529869 0.767735
vt 0.560155 0.681791
vt 0.350146 0.904163
vt 0.736567 0.910847
vt 0.783355 0.738479
vt 0.789074 0.705542
vt 0.789074 0.741516
vt 0.349519 0.925523
vt 0.127797 0.856334
vt 0.340974 0.319087
vt 0.406747 0.563580
vt 0.321701 0.317029
vt 0.909050 0.946431
vt 0.959638 0.713086
vt 0.191081 0.675699
vt 0.616295 0.531483
vt 0.633623 0.288657
vt 0.635047 0.288657
vt 0.000000 0.719967
vt 0.518289 0.597647
vt 0.950173 0.002625
vt 0.730756 0.493100
vt 0.943176 0.954436
vt 0.586620 0.926817
vt 0.762828 0.500315
vt 0.783355 0.493100
vt 0.783355 0.680868
vt 0.789446 0.667286
vt 0.789446 0.705542
vt 0.824628 0.910082
vt 0.846433 0.995659
vt 0.768018 0.840018
vt 0.790077 0.608714
vt 0.127797 0.691002
vt 0.994216 0.304887
vt 0.111920 0.448565
vt 0.267339 0.941307
vt 0.617054 0.867531
vt 0.020785 0.730546
vt 0.074179 0.684906
vn -1.000000 0.000000 0.000000
vn -0.486600 0.825200 -0.286800
vn 0.805900 0.516400 0.289600
vn -0.063200 -0.754200 0.653500
vn 0.805900 -0.516400 -0.289600
vn -0.805900 -0.516400 0.289600
vn -0.940000 -0.048500 -0.337800
vn 0.816300 0.379500 -0.435500
vn -0.748600 -0.605900 0.269000
vn -0.679700 -0.637600 0.362600
vn 0.924000 0.036800 0.380600
vn 0.203500 -0.595500 0.777200
vn -0.330900 0.205700 -0.921000
vn -0.877500 -0.104200 0.468100
vn -0.919700 -0.102700 -0.378900
vn -0.361100 -0.318100 0.876600
vn 0.983300 0.158200 -0.089500
vn -0.406700 -0.177500 -0.896100
vn 0.986900 0.028100 0.158800
vn 0.386100 -0.571900 0.723800
vn -0.401700 -0.235700 -0.884900
vn 0.830000 -0.411400 -0.376700
vn -0.154800 -0.226800 0.961600
vn -0.395500 0.435200 0.808800
vn 0.378600 0.109400 -0.919100
vn 0.408600 -0.366800 -0.835700
vn -0.240600 -0.813200 -0.530000
vn 0.910600 0.002400 -0.413300
vn -0.124000 0.000000 -0.992300
vn -0.812100 0.452300 0.368600
vn 0.681600 0.651400 0.333300
vn -0.312000 0.704000 0.638000
vn -0.530100 -0.807300 -0.259200
vn 0.243600 -0.832200 -0.498100
vn 0.852500 0.508300 -0.122100
vn -0.792700 -0.595900 0.128300
vn 0.336700 -0.098600 0.936400
vn -0.257900 0.031800 -0.965600
vn -0.980100 -0.176200 0.091400
vn -0.752100 0.516200 -0.409700
vn 0.415000 -0.462600 -0.783400
vn 0.741700 -0.436500 -0.509300
vn -0.612700 -0.772700 -0.166000
vn -0.869200 0.298200 0.394500
vn -0.592900 0.564800 0.573900
vn 0.909900 0.399100 -0.113100
vn 0.894000 -0.098700 0.437100
vn -0.289600 0.516400 0.805900
vn -0.746600 0.537000 -0.392800
vn 0.656100 0.700800 -0.280200
vn -0.289600 -0.516400 -0.805900
vn 0.063000 -0.997700 0.024000
vn -0.429500 0.409400 -0.805000
vn 0.360300 0.688300 -0.629600
vn 0.837200 0.456600 -0.300900
vn -0.357900 -0.341800 0.868900
vn 0.152300 0.284300 -0.946600
vn 0.460300 -0.209400 0.862700
vn -0.939200 0.268800 -0.213500
vn 0.153300 -0.262400 -0.952700
vn 0.502100 0.122200 0.856100
vn -0.804000 0.362200 0.471500
vn -0.967300 0.200300 -0.155700
vn 0.446300 0.087500 0.890600
vn -0.909500 -0.400000 0.113200
vn -0.707700 0.454100 0.541300
vn 0.702200 0.703000 0.113000
vn 0.779900 -0.427200 -0.457400
vn 0.831700 -0.364500 -0.418800
vn 0.776300 0.450300 -0.441100
vn -0.400500 0.579200 -0.710000
vn 0.841500 0.440200 0.313200
vn 0.823300 0.313200 0.473400
vn -0.605900 0.668500 0.431400
vn -0.769000 0.639200 -0.011800
vn 0.669400 0.698400 -0.253000
vn 0.987300 -0.001100 0.158900
vn 0.276000 -0.577800 0.768100
vn -0.251400 -0.621300 0.742100
vn -0.692700 0.710200 -0.125700
vn 0.090500 -0.698300 0.710000
vn -0.403500 0.594600 0.695400
vn 0.750500 -0.536000 0.386600
vn -0.814200 0.521700 -0.254800
vn 0.318400 -0.947900 -0.005600
vn -0.769400 0.411400 0.488600
vn 0.031800 -0.510400 0.859300
vn 0.250900 -0.967800 -0.021300
vn -0.506600 -0.685100 0.523400
vn -0.387400 0.475100 0.790000
vn 0.414500 0.718300 -0.558800
vn -0.533500 0.713000 -0.455100
vn -0.540000 -0.765000 -0.351000
vn 0.155000 -0.897900 -0.411900
vn -0.473500 -0.807400 0.352200
vn -0.066800 -0.926500 -0.370400
vn -0.206600 -0.933100 -0.294400
vn 0.301000 -0.590400 0.748900
vn -0.218800 -0.887400 0.405700
vn 0.096400 -0.889800 -0.446100
vn -0.013800 -0.728000 0.685400
vn -0.063800 -0.934000 -0.351600
vn -0.400200 0.453300 0.796500
vn -0.448200 -0.580100 -0.680100
vn 0.401500 0.575000 0.712800
vn 0.726400 -0.434400 0.532600
vn -0.710600 0.691500 -0.129900
vn -0.166700 -0.588300 -0.791300
vn 0.118500 0.576900 0.808200
vn 0.673900 -0.420100 0.607800
vn -0.782600 0.566900 -0.257100
vn -0.755500 -0.487500 -0.437700
vn 0.733800 0.486500 0.474200
vn 0.790400 -0.524300 0.316700
vn 0.310000 -0.718100 0.623000
vn 0.964500 -0.188200 0.185100
vn -0.952400 0.196100 -0.233400
vn -0.261500 0.701700 -0.662700
vn 0.722400 -0.215700 -0.657000
vn -0.027200 -0.372800 0.927500
vn -0.482900 0.629800 -0.608400
vn 0.676600 -0.310400 -0.667700
vn 0.365600 -0.428400 0.826300
vn 0.877300 -0.126200 0.463100
vn -0.833300 0.102000 -0.543400
vn -0.338200 0.388500 -0.857100
vn -0.564700 0.109600 -0.818000
vn 0.021400 -0.013800 0.999700
vn -0.566400 0.776300 -0.276900
vn -0.993500 -0.113600 -0.011800
vn -0.258200 -0.605200 0.753000
vn -0.260300 -0.612800 0.746100
vn -0.818600 0.326500 0.472500
vn -0.634700 0.337800 -0.695100
vn -0.540000 0.765000 0.351000
vn -0.639200 0.604500 -0.475300
vn -0.886600 0.283900 -0.365200
vn -0.318000 -0.340200 0.885000
vn 0.268000 0.710500 -0.650600
vn -0.498900 0.166000 -0.850600
vn -0.853600 -0.144100 0.500600
vn -0.495100 -0.135000 -0.858300
vn 0.848100 0.275500 -0.452500
vn 0.879300 0.356400 0.316000
vn 0.470500 -0.028400 0.881900
vn 0.846200 0.194000 -0.496300
vn 0.998900 -0.046800 0.000000
vn 0.192000 0.885600 0.422900
vn 0.605300 -0.571100 -0.554400
vn -0.145500 0.401800 0.904100
vn -0.789900 0.543500 -0.283900
vn 0.417800 0.541000 -0.729900
vn 0.495900 -0.197500 0.845600
vn -0.894200 0.095700 -0.437200
vn 0.657900 0.685200 -0.312600
vn 0.561200 0.822800 0.089400
vn -0.960600 0.214700 -0.176300
vn 0.921300 -0.084800 0.379500
vn -0.535200 0.814000 -0.225600
vn 0.486100 0.212500 0.847700
vn 0.058200 -0.584700 0.809200
vn 0.219600 -0.498700 0.838500
vn 0.170900 -0.889600 -0.423600
vn 0.418700 -0.673000 0.609800
vn 0.958300 -0.202100 0.201800
vn -0.959800 0.180100 -0.215500
vn -0.375300 0.670400 -0.640000
vn -0.291000 0.682200 -0.670700
vn -0.258100 -0.605200 0.753000
s off
f 8/1/1 82/1/1 16/1/1
f 56/2/2 57/3/2 60/4/2
f 3/5/3 5/6/3 13/7/3
f 88/8/4 86/9/4 85/10/4
f 4/11/5 7/12/5 15/13/5
f 1/14/6 5/15/6 13/16/6
f 10/17/7 15/18/7 23/19/7
f 14/20/8 22/21/8 17/22/8
f 9/23/9 13/24/9 21/25/9
f 16/26/10 24/27/10 20/28/10
f 15/29/11 23/30/11 20/31/11
f 10/32/12 14/33/12 22/34/12
f 11/35/13 16/36/13 24/37/13
f 20/38/14 24/39/14 32/40/14
f 17/41/15 21/42/15 29/43/15
f 18/44/16 22/34/16 30/45/16
f 94/46/17 45/47/17 44/48/17
f 105/49/18 33/50/18 38/51/18
f 22/21/19 30/52/19 25/53/19
f 13/24/20 21/25/20 19/54/20
f 51/55/21 40/56/21 36/57/21
f 31/58/22 39/59/22 34/60/22
f 21/25/23 29/61/23 27/62/23
f 36/63/24 52/64/24 39/65/24
f 19/66/25 24/37/25 32/67/25
f 29/68/26 37/69/26 33/70/26
f 36/71/27 40/72/27 41/73/27
f 34/60/28 39/59/28 41/74/28
f 38/75/29 116/76/29 41/77/29
f 35/78/30 37/79/30 41/80/30
f 35/81/31 40/82/31 41/83/31
f 36/63/32 39/65/32 41/84/32
f 41/85/33 34/86/33 116/87/33
f 33/88/34 37/89/34 41/90/34
f 44/48/35 45/47/35 46/91/35
f 43/92/36 42/93/36 46/94/36
f 45/95/37 43/96/37 46/97/37
f 42/98/38 44/99/38 46/100/38
f 48/101/39 47/102/39 98/103/39
f 50/104/40 48/105/40 97/106/40
f 42/107/41 47/108/41 49/109/41
f 47/108/42 51/110/42 32/111/42
f 48/112/43 52/113/43 51/114/43
f 29/115/44 37/79/44 35/78/44
f 48/116/45 50/117/45 28/118/45
f 50/119/46 49/120/46 32/121/46
f 51/122/47 40/82/47 35/81/47
f 12/123/48 4/124/48 16/125/48
f 10/17/49 67/126/49 68/127/49
f 1/128/50 54/129/50 14/130/50
f 11/131/3 3/5/3 13/7/3
f 11/132/51 3/133/51 16/134/51
f 12/135/5 4/11/5 15/13/5
f 76/136/52 2/137/52 75/138/52
f 9/139/6 1/14/6 13/16/6
f 18/140/53 10/141/53 23/142/53
f 9/143/54 14/144/54 17/145/54
f 12/146/55 15/29/55 20/31/55
f 18/44/56 10/32/56 22/34/56
f 26/147/57 18/148/57 31/149/57
f 28/150/58 23/151/58 18/152/58
f 52/153/59 51/154/59 36/155/59
f 26/147/60 31/149/60 34/156/60
f 52/157/61 28/158/61 31/58/61
f 26/159/62 30/160/62 34/161/62
f 25/162/63 104/163/63 30/164/63
f 52/157/64 31/58/64 39/59/64
f 47/102/65 48/101/65 51/165/65
f 52/166/66 48/116/66 28/118/66
f 28/167/67 50/119/67 32/121/67
f 32/111/68 51/110/68 27/168/68
f 51/122/69 35/81/69 27/169/69
f 1/128/70 55/170/70 57/171/70
f 6/172/71 14/173/71 54/174/71
f 58/175/72 60/176/72 57/171/72
f 58/175/73 79/177/73 60/176/73
f 62/1/74 59/57/74 60/178/74 63/179/74
f 53/1/75 62/57/75 63/178/75 64/179/75
f 61/180/76 53/181/76 64/182/76
f 23/30/77 28/167/77 32/121/77
f 65/183/78 6/184/78 14/33/78
f 2/185/79 74/186/79 75/187/79
f 56/2/80 6/188/80 54/189/80
f 6/184/81 65/183/81 66/190/81
f 67/191/82 72/192/82 73/193/82
f 10/194/83 67/195/83 66/196/83
f 68/127/84 7/197/84 15/18/84
f 72/198/85 71/199/85 66/200/85
f 76/201/86 77/202/86 73/193/86
f 69/203/87 66/204/87 71/205/87
f 72/198/88 76/136/88 75/138/88
f 74/186/89 70/206/89 71/205/89
f 76/201/90 2/207/90 77/202/90
f 78/208/91 61/209/91 64/210/91 63/211/91 60/212/91
f 79/213/92 78/214/92 60/215/92
f 3/133/93 81/216/93 82/217/93
f 80/218/94 8/219/94 82/220/94
f 83/221/95 85/10/95 82/222/95
f 87/223/96 80/218/96 85/224/96
f 84/225/97 89/226/97 86/227/97
f 88/8/98 84/228/98 86/9/98
f 93/229/99 92/230/99 86/231/99
f 91/232/100 87/223/100 86/233/100
f 93/229/101 90/234/101 92/230/101
f 90/235/102 91/232/102 92/236/102
f 95/237/103 94/238/103 99/239/103
f 48/240/104 98/241/104 101/242/104
f 50/119/105 100/243/105 102/244/105
f 99/245/106 102/244/106 101/246/106
f 94/238/107 95/237/107 96/247/107
f 95/248/108 43/249/108 96/250/108
f 45/251/109 94/238/109 96/247/109
f 43/252/110 45/253/110 96/254/110
f 100/255/111 97/106/111 103/256/111
f 97/106/112 101/257/112 103/256/112
f 102/244/113 100/243/113 103/258/113
f 101/246/114 102/244/114 103/258/114
f 104/259/115 108/260/115 109/261/115
f 29/262/116 105/263/116 109/264/116
f 25/162/117 113/265/117 108/266/117
f 106/267/118 113/268/118 107/269/118
f 114/270/119 115/271/119 111/272/119
f 113/273/120 112/274/120 115/275/120
f 113/268/121 106/267/121 114/270/121
f 106/267/122 108/276/122 115/271/122
f 109/261/123 108/260/123 110/277/123
f 107/278/124 109/264/124 110/279/124
f 108/280/125 106/281/125 110/282/125
f 106/267/126 107/269/126 110/283/126
f 112/284/127 114/270/127 111/272/127
f 115/275/128 112/274/128 111/285/128
f 38/75/129 120/286/129 118/287/129
f 119/288/130 120/289/130 117/290/130
f 116/291/131 34/292/131 118/293/131
f 119/294/132 118/293/132 117/295/132
f 116/76/133 38/75/133 120/286/133
f 118/296/134 120/289/134 117/290/134
f 4/124/135 8/297/135 16/125/135
f 59/298/136 56/299/136 60/300/136
f 83/221/4 88/8/4 85/10/4
f 17/41/137 9/301/137 21/42/137
f 12/302/138 16/26/138 20/28/138
f 19/66/139 11/35/139 24/37/139
f 25/303/140 17/304/140 29/305/140
f 26/159/141 18/306/141 30/160/141
f 49/120/17 50/119/17 99/245/17
f 104/307/142 105/49/142 38/51/142
f 44/48/17 49/120/17 99/245/17
f 99/245/17 94/46/17 44/48/17
f 17/22/143 22/21/143 25/53/143
f 11/131/144 13/7/144 19/308/144
f 19/54/145 21/25/145 27/62/145
f 27/309/146 19/310/146 32/85/146
f 105/263/147 29/262/147 33/311/147
f 33/312/148 38/75/148 41/77/148
f 43/92/39 95/313/39 42/93/39
f 100/255/40 50/104/40 97/106/40
f 44/314/41 42/107/41 49/109/41
f 98/103/39 47/102/39 42/93/39
f 95/313/39 98/103/39 42/93/39
f 49/109/149 47/108/149 32/111/149
f 27/315/150 29/115/150 35/78/150
f 15/18/151 10/17/151 68/127/151
f 9/143/152 1/316/152 14/144/152
f 31/317/153 28/150/153 18/152/153
f 104/163/154 38/318/154 34/319/154
f 54/129/155 1/128/155 57/171/155
f 55/170/156 58/175/156 57/171/156
f 104/163/157 34/319/157 30/164/157
f 20/31/158 23/30/158 32/121/158
f 57/3/159 56/2/159 54/189/159
f 69/320/160 6/321/160 66/322/160
f 68/323/82 67/191/82 73/193/82
f 72/192/86 76/201/86 73/193/86
f 65/183/161 10/32/161 66/190/161
f 67/324/85 72/198/85 66/200/85
f 65/183/162 14/33/162 10/32/162
f 70/206/87 69/203/87 71/205/87
f 71/199/88 72/198/88 75/138/88
f 75/187/89 74/186/89 71/205/89
f 16/134/93 3/133/93 82/217/93
f 85/224/163 80/218/163 82/220/163
f 81/325/95 83/221/95 82/222/95
f 86/233/96 87/223/96 85/224/96
f 89/326/99 93/229/99 86/231/99
f 92/236/100 91/232/100 86/233/100
f 98/327/103 95/237/103 99/239/103
f 97/328/104 48/240/104 101/242/104
f 99/245/105 50/119/105 102/244/105
f 98/329/106 99/245/106 101/246/106
f 105/330/164 104/259/164 109/261/164
f 107/278/165 29/262/165 109/264/165
f 104/163/166 25/162/166 108/266/166
f 113/268/167 25/303/167 29/305/167
f 108/331/120 113/273/120 115/275/120
f 112/284/121 113/268/121 114/270/121
f 113/268/168 29/305/168 107/269/168
f 114/270/122 106/267/122 115/271/122
f 34/332/129 38/75/129 118/287/129
f 119/294/169 116/291/169 118/293/169
f 119/333/133 116/76/133 120/286/133
